<?xml version="1.0" encoding="UTF-8"?><svg xmlns="http://www.w3.org/2000/svg" xmlns:xlink="http://www.w3.org/1999/xlink" contentScriptType="text/ecmascript" width="36pt" zoomAndPan="magnify" contentStyleType="text/css" viewBox="0 0 36 36.000001" height="36.000001pt" preserveAspectRatio="xMidYMid meet" version="1.2"><defs><clipPath xml:id="clip1" id="clip1"><path d="M 1.507812 1.023438 L 34.347656 1.023438 L 34.347656 33.859375 L 1.507812 33.859375 Z M 1.507812 1.023438 "/></clipPath></defs><g xml:id="surface1" id="surface1"><g clip-rule="nonzero" clip-path="url(#clip1)"><path style=" stroke:none;fill-rule:nonzero;fill:rgb(63.919067%,67.059326%,69.018555%);fill-opacity:1;" d="M 17.925781 1.363281 C 8.859375 1.363281 1.507812 8.742188 1.507812 17.847656 C 1.507812 25.128906 6.210938 31.308594 12.738281 33.488281 C 13.558594 33.640625 13.859375 33.132812 13.859375 32.695312 C 13.859375 32.304688 13.84375 31.265625 13.835938 29.890625 C 9.269531 30.886719 8.304688 27.679688 8.304688 27.679688 C 7.558594 25.777344 6.484375 25.269531 6.484375 25.269531 C 4.992188 24.246094 6.59375 24.269531 6.59375 24.269531 C 8.242188 24.386719 9.109375 25.96875 9.109375 25.96875 C 10.574219 28.484375 12.953125 27.757812 13.886719 27.335938 C 14.035156 26.269531 14.460938 25.542969 14.929688 25.132812 C 11.285156 24.714844 7.453125 23.300781 7.453125 16.984375 C 7.453125 15.1875 8.09375 13.714844 9.144531 12.5625 C 8.972656 12.144531 8.410156 10.46875 9.304688 8.199219 C 9.304688 8.199219 10.683594 7.757812 13.816406 9.890625 C 15.128906 9.523438 16.53125 9.339844 17.929688 9.335938 C 19.324219 9.34375 20.726562 9.523438 22.039062 9.890625 C 25.175781 7.757812 26.550781 8.203125 26.550781 8.203125 C 27.445312 10.472656 26.882812 12.148438 26.714844 12.5625 C 27.769531 13.714844 28.402344 15.1875 28.402344 16.988281 C 28.402344 23.320312 24.5625 24.714844 20.90625 25.121094 C 21.496094 25.628906 22.023438 26.636719 22.023438 28.171875 C 22.023438 30.378906 22 32.15625 22 32.695312 C 22 33.136719 22.296875 33.648438 23.128906 33.488281 C 29.644531 31.304688 34.347656 25.128906 34.347656 17.847656 C 34.347656 8.742188 26.996094 1.363281 17.925781 1.363281 Z M 17.925781 1.363281 "/></g></g></svg>