<?xml version="1.0" encoding="UTF-8"?><svg xmlns="http://www.w3.org/2000/svg" xmlns:xlink="http://www.w3.org/1999/xlink" contentScriptType="text/ecmascript" width="36pt" zoomAndPan="magnify" contentStyleType="text/css" viewBox="0 0 36 36.000001" height="36.000001pt" preserveAspectRatio="xMidYMid meet" version="1.2"><defs><clipPath xml:id="clip1" id="clip1"><path d="M 0.488281 0 L 35.511719 0 L 35.511719 35.027344 L 0.488281 35.027344 Z M 0.488281 0 "/></clipPath></defs><g xml:id="surface1" id="surface1"><g clip-rule="nonzero" clip-path="url(#clip1)"><path style=" stroke:none;fill-rule:nonzero;fill:rgb(63.919067%,67.059326%,69.018555%);fill-opacity:1;" d="M 32.34375 0 L 3.65625 0 C 1.90625 0 0.488281 1.417969 0.488281 3.167969 L 0.488281 31.859375 C 0.488281 33.609375 1.90625 35.027344 3.65625 35.027344 L 32.34375 35.027344 C 34.09375 35.027344 35.511719 33.609375 35.511719 31.859375 L 35.511719 3.167969 C 35.511719 1.417969 34.09375 0 32.34375 0 Z M 11.324219 30.246094 C 11.324219 30.753906 10.914062 31.167969 10.402344 31.167969 L 6.476562 31.167969 C 5.96875 31.167969 5.554688 30.753906 5.554688 30.246094 L 5.554688 13.792969 C 5.554688 13.28125 5.96875 12.867188 6.476562 12.867188 L 10.402344 12.867188 C 10.914062 12.867188 11.324219 13.28125 11.324219 13.792969 Z M 8.441406 11.316406 C 6.382812 11.316406 4.710938 9.648438 4.710938 7.589844 C 4.710938 5.53125 6.382812 3.859375 8.441406 3.859375 C 10.5 3.859375 12.167969 5.53125 12.167969 7.589844 C 12.167969 9.648438 10.5 11.316406 8.441406 11.316406 Z M 31.835938 30.320312 C 31.835938 30.785156 31.457031 31.167969 30.988281 31.167969 L 26.777344 31.167969 C 26.308594 31.167969 25.929688 30.785156 25.929688 30.320312 L 25.929688 22.601562 C 25.929688 21.449219 26.269531 17.554688 22.921875 17.554688 C 20.324219 17.554688 19.800781 20.222656 19.691406 21.417969 L 19.691406 30.320312 C 19.691406 30.785156 19.3125 31.167969 18.84375 31.167969 L 14.773438 31.167969 C 14.304688 31.167969 13.925781 30.785156 13.925781 30.320312 L 13.925781 13.714844 C 13.925781 13.25 14.304688 12.867188 14.773438 12.867188 L 18.84375 12.867188 C 19.3125 12.867188 19.691406 13.25 19.691406 13.714844 L 19.691406 15.152344 C 20.65625 13.707031 22.085938 12.59375 25.132812 12.59375 C 31.875 12.59375 31.835938 18.894531 31.835938 22.355469 Z M 31.835938 30.320312 "/></g></g></svg>