<?xml version="1.0" encoding="UTF-8"?><svg xmlns="http://www.w3.org/2000/svg" xmlns:xlink="http://www.w3.org/1999/xlink" contentScriptType="text/ecmascript" width="36pt" zoomAndPan="magnify" contentStyleType="text/css" viewBox="0 0 36 36.000001" height="36.000001pt" preserveAspectRatio="xMidYMid meet" version="1.2"><defs><clipPath xml:id="clip1" id="clip1"><path d="M 9.566406 10 L 26.351562 10 L 26.351562 25 L 9.566406 25 Z M 9.566406 10 "/></clipPath></defs><g xml:id="surface1" id="surface1"><g clip-rule="nonzero" clip-path="url(#clip1)"><path style=" stroke:none;fill-rule:nonzero;fill:rgb(63.919067%,67.059326%,69.018555%);fill-opacity:1;" d="M 24.402344 12.800781 L 24.402344 12.792969 C 24.546875 12.734375 24.664062 12.613281 24.78125 12.523438 C 25.304688 12.117188 25.644531 11.585938 25.898438 10.90625 C 25.753906 10.984375 25.613281 11.0625 25.46875 11.140625 C 25.027344 11.363281 24.28125 11.6875 23.703125 11.734375 C 23.027344 11.117188 22.316406 10.632812 20.984375 10.65625 C 20.84375 10.671875 20.703125 10.6875 20.5625 10.707031 C 20.292969 10.765625 20.03125 10.839844 19.796875 10.941406 C 18.820312 11.363281 18.15625 12.15625 17.847656 13.25 C 17.726562 13.6875 17.679688 14.417969 17.832031 14.867188 C 17.28125 14.867188 16.75 14.78125 16.289062 14.667969 C 14.46875 14.21875 13.335938 13.617188 12.078125 12.632812 C 11.710938 12.34375 11.347656 12.015625 11.054688 11.652344 C 10.960938 11.535156 10.8125 11.433594 10.742188 11.292969 C 10.738281 11.289062 10.734375 11.285156 10.726562 11.285156 C 10.582031 11.554688 10.445312 11.847656 10.359375 12.179688 C 10.015625 13.488281 10.554688 14.589844 11.128906 15.304688 C 11.304688 15.519531 11.585938 15.652344 11.761719 15.855469 L 11.777344 15.855469 C 11.648438 15.90625 11.421875 15.835938 11.304688 15.8125 C 11.039062 15.757812 10.808594 15.707031 10.585938 15.613281 C 10.464844 15.558594 10.347656 15.5 10.230469 15.445312 C 10.226562 16.894531 10.957031 17.832031 11.851562 18.394531 C 12.144531 18.578125 12.554688 18.824219 12.976562 18.847656 C 12.75 19.039062 11.777344 18.949219 11.441406 18.914062 C 11.863281 20 12.511719 20.722656 13.625 21.117188 C 13.914062 21.21875 14.261719 21.304688 14.648438 21.300781 C 14.445312 21.542969 14.007812 21.742188 13.71875 21.910156 C 13.121094 22.257812 12.429688 22.484375 11.652344 22.65625 C 11.339844 22.726562 11.007812 22.710938 10.667969 22.765625 C 10.292969 22.824219 9.902344 22.734375 9.566406 22.722656 C 9.667969 22.785156 9.769531 22.847656 9.871094 22.90625 C 10.175781 23.09375 10.496094 23.257812 10.84375 23.410156 C 11.46875 23.683594 12.132812 23.890625 12.867188 24.070312 C 14.351562 24.441406 16.445312 24.273438 17.742188 23.871094 C 21.347656 22.746094 23.625 20.121094 24.488281 16.257812 C 24.632812 15.59375 24.65625 14.839844 24.644531 14.046875 C 24.824219 13.90625 25.003906 13.761719 25.183594 13.621094 C 25.628906 13.265625 26.042969 12.769531 26.351562 12.28125 L 26.351562 12.269531 C 25.765625 12.453125 25.148438 12.792969 24.402344 12.800781 Z M 24.402344 12.800781 "/></g></g></svg>